<?xml version="1.0" standalone="no"?>
<!DOCTYPE svg PUBLIC "-//W3C//DTD SVG 20010904//EN"
 "http://www.w3.org/TR/2001/REC-SVG-20010904/DTD/svg10.dtd">
<svg version="1.0" xmlns="http://www.w3.org/2000/svg"
 width="318.000000pt" height="318.000000pt" viewBox="0 0 318.000000 318.000000"
 preserveAspectRatio="xMidYMid meet">
<metadata>
Created by potrace 1.14, written by Peter Selinger 2001-2017
</metadata>
<g transform="translate(0.000000,318.000000) scale(0.100000,-0.100000)"
fill="#000000" stroke="none">
<path d="M20 2120 c0 -5 18 -28 40 -50 22 -22 40 -42 40 -45 0 -2 15 -19 33
-37 17 -19 45 -50 60 -69 l28 -34 169 -1 170 -1 6 33 c3 19 9 34 13 34 4 0 7
8 7 18 2 30 14 84 25 103 5 11 7 19 4 19 -3 0 -1 9 5 19 9 19 2 19 -295 20
-191 1 -305 -2 -305 -9z"/>
<path d="M779 2127 c-2 -5 -11 -47 -16 -79 -3 -21 -10 -38 -16 -38 -6 0 -7 -3
-4 -7 4 -3 2 -12 -4 -20 -9 -10 -8 -13 1 -13 9 0 9 -4 3 -12 -12 -16 -27 -66
-26 -90 0 -10 -4 -18 -9 -18 -5 0 -8 -6 -5 -12 2 -7 -1 -26 -8 -43 -6 -16 -13
-33 -13 -37 -1 -5 -2 -9 -3 -10 0 -2 -2 -14 -5 -28 -2 -14 -17 -34 -32 -45
-15 -11 -35 -28 -44 -37 -10 -10 -18 -15 -18 -10 0 4 -5 -1 -11 -11 -6 -9 -14
-15 -20 -12 -5 4 -9 1 -9 -4 0 -6 -3 -10 -7 -9 -5 0 -16 -2 -26 -7 -11 -4 -23
-3 -30 4 -8 8 -8 11 2 11 8 0 11 7 8 20 -3 11 -2 20 2 20 7 0 11 15 12 53 0 9
4 17 8 17 4 0 8 6 9 13 0 6 4 28 7 47 l7 36 -161 1 c-89 0 -163 -3 -166 -7 -3
-5 -6 -20 -7 -34 -1 -14 -6 -26 -11 -26 -4 0 -6 -4 -3 -8 3 -5 -4 -38 -14 -73
-22 -71 -29 -97 -37 -149 -3 -19 -8 -37 -12 -40 -11 -8 -12 -60 -1 -60 6 0 10
-5 10 -11 0 -6 11 -24 25 -41 14 -16 25 -26 25 -21 0 12 104 11 112 -2 5 -7 8
-7 8 0 0 9 58 13 68 5 3 -3 51 -3 55 0 7 7 85 5 100 -2 10 -5 17 -5 17 1 0 5
9 8 20 6 16 -3 62 23 80 46 3 3 15 11 27 18 20 10 25 8 45 -23 19 -29 31 -37
68 -43 25 -4 50 -6 55 -4 24 7 107 6 111 -1 3 -5 11 -5 17 -1 16 10 47 11 47
2 0 -13 77 13 101 34 48 43 114 94 132 100 10 4 15 12 12 17 -4 6 -3 9 2 8 8
-3 52 27 86 57 7 6 30 22 52 35 22 13 46 30 53 37 17 16 50 113 46 136 -1 9 2
17 7 17 4 0 6 7 3 15 -4 8 -2 15 3 15 5 0 10 8 11 18 1 9 4 26 6 37 2 11 5 30
5 43 1 13 5 21 9 18 4 -2 8 3 8 12 2 27 13 78 24 107 6 15 8 30 5 35 -3 5 -1
11 5 15 5 3 10 13 10 21 0 12 -28 14 -165 14 -125 0 -165 -3 -166 -12 0 -7 -2
-20 -4 -28 -2 -8 -6 -25 -9 -38 -3 -12 -7 -25 -9 -30 -5 -7 -18 -77 -20 -99 0
-7 -4 -13 -9 -13 -5 0 -8 -8 -7 -17 3 -23 -11 -74 -25 -92 -9 -12 -8 -13 4 -6
13 8 13 6 2 -8 -8 -9 -11 -21 -7 -27 3 -5 2 -10 -3 -10 -5 0 -9 -12 -9 -26 0
-15 -5 -29 -11 -33 -14 -9 -71 -53 -95 -73 -11 -10 -26 -18 -34 -18 -7 0 -13
-4 -13 -10 0 -5 -11 -10 -24 -10 -18 0 -23 5 -21 18 2 9 4 18 5 20 2 1 3 5 4
10 1 4 5 13 10 21 6 10 5 12 -2 7 -7 -4 -5 7 3 29 9 19 16 46 17 60 1 14 5 25
9 25 4 0 10 19 14 43 10 54 9 50 16 62 4 6 5 18 4 28 -2 9 0 17 5 17 4 0 10
19 14 42 4 22 10 46 14 52 3 6 8 20 10 31 6 36 8 40 14 50 16 26 -12 32 -164
32 -87 1 -158 0 -159 0z"/>
<path d="M1675 2078 c-8 -28 -15 -58 -15 -65 0 -7 -4 -13 -9 -13 -6 0 -8 -9
-6 -20 2 -11 -1 -20 -6 -20 -6 0 -8 -4 -5 -8 3 -5 -1 -29 -9 -54 -7 -26 -11
-49 -8 -52 4 -3 2 -6 -3 -6 -5 0 -10 -8 -11 -17 -4 -40 -27 -128 -35 -134 -6
-3 -9 -9 -8 -13 4 -14 -12 -86 -19 -86 -4 0 -8 -8 -9 -17 -2 -18 -9 -54 -12
-63 -1 -3 -3 -9 -5 -15 -1 -5 -3 -13 -5 -17 -1 -5 -4 -12 -5 -18 -1 -5 -3 -11
-5 -12 -1 -2 -4 -16 -6 -33 -3 -16 -8 -32 -12 -35 -4 -3 -7 -12 -8 -21 -1 -11
8 -15 33 -14 18 1 36 -2 39 -7 3 -4 11 -5 17 -1 17 10 100 11 114 1 6 -5 14
-5 16 0 3 4 28 7 56 6 50 -2 54 1 50 32 0 4 4 10 9 13 9 5 23 62 25 99 0 6 4
12 9 12 4 0 7 3 6 8 -1 4 2 21 6 39 l7 31 207 1 c130 1 208 5 210 11 2 6 7 8
11 5 5 -2 27 11 49 31 33 28 42 44 48 82 5 26 7 50 6 55 -1 4 2 7 8 7 6 0 9 3
8 8 -3 11 22 125 32 147 5 11 12 32 15 48 3 15 7 38 10 52 4 17 -1 31 -15 45
-11 11 -20 21 -19 23 0 1 -3 10 -6 19 -6 16 -37 17 -371 17 l-363 1 -16 -52z
m371 -194 c16 -3 23 -1 19 6 -4 6 3 6 19 -1 19 -9 23 -16 17 -28 -10 -17 -11
-23 -11 -47 0 -10 -6 -14 -15 -11 -8 4 -17 2 -20 -3 -3 -5 -15 -6 -28 -1 -35
14 -39 13 -48 -1 -6 -9 -9 -9 -9 -1 0 6 -9 10 -20 8 -16 -3 -20 2 -20 21 0 13
5 24 10 24 6 0 9 3 9 8 -4 26 3 32 32 27 22 -4 28 -2 23 6 -4 8 -3 9 5 5 6 -4
23 -9 37 -12z"/>
<path d="M2580 2091 c-5 -20 -11 -45 -13 -56 -2 -11 -7 -27 -10 -35 -4 -8 -8
-24 -10 -35 -1 -11 -6 -26 -10 -32 -5 -7 -5 -18 -1 -24 3 -6 2 -14 -4 -18 -6
-3 -13 -20 -16 -36 -2 -17 -5 -31 -6 -32 -2 -2 -3 -11 -4 -20 -1 -10 -5 -23
-9 -30 -4 -6 -8 -23 -9 -37 -1 -14 -5 -26 -9 -26 -4 0 -5 -9 -2 -20 3 -11 0
-20 -6 -20 -6 0 -10 -3 -9 -7 4 -16 -14 -93 -21 -93 -4 0 -8 -6 -8 -12 -1 -20
-13 -80 -18 -88 -5 -8 -16 -55 -22 -99 -4 -23 -2 -32 6 -27 6 4 11 1 11 -6 0
-8 3 -9 8 -3 9 14 105 14 114 1 5 -8 8 -8 8 -1 0 9 58 13 68 5 3 -3 51 -3 55
0 7 7 85 5 100 -2 10 -5 17 -5 17 0 0 11 51 9 69 -2 6 -4 11 -2 11 4 0 7 6 8
19 1 10 -6 22 -7 25 -3 12 11 106 9 106 -2 0 -7 3 -8 8 -1 9 13 72 14 72 1 0
-20 21 11 26 39 3 16 8 33 12 39 7 12 10 24 19 79 3 20 9 37 13 37 4 0 8 11 8
24 l0 23 -196 -1 c-197 -1 -216 3 -196 36 4 7 9 23 10 36 2 14 6 32 10 41 4 9
8 25 9 36 0 11 4 26 8 32 5 7 10 23 13 35 6 28 9 39 17 58 6 16 17 67 19 88 1
6 5 12 10 12 5 0 7 4 4 8 -3 5 1 29 9 54 7 26 11 49 8 52 -4 3 -2 6 3 6 5 0
11 13 12 28 l2 28 -160 1 -160 0 -10 -36z"/>
<path d="M450 1219 c0 -5 -4 -8 -9 -5 -13 8 -72 -5 -66 -14 3 -4 -1 -13 -9
-19 -19 -16 -14 -74 9 -105 15 -20 29 -26 56 -26 48 0 73 28 74 85 1 37 -3 49
-27 70 -15 14 -28 20 -28 14z m3 -54 c16 -16 10 -66 -9 -72 -28 -9 -49 37 -32
70 11 21 22 22 41 2z"/>
<path d="M565 1221 c-3 -6 -12 -8 -20 -4 -13 4 -15 -9 -15 -81 0 -79 2 -86 20
-86 16 0 20 7 20 30 0 17 4 30 10 30 5 0 16 -13 25 -30 9 -18 23 -30 35 -30
21 0 27 24 10 35 -6 4 -8 11 -5 16 4 5 0 9 -7 9 -8 0 -6 5 5 11 36 21 12 94
-32 94 -9 0 -21 4 -28 8 -6 4 -14 3 -18 -2z m48 -55 c3 -8 -1 -17 -9 -20 -25
-9 -30 -7 -31 14 -2 23 32 28 40 6z"/>
<path d="M694 1217 c-7 -18 -12 -139 -6 -154 3 -8 24 -13 59 -13 51 0 54 2 51
22 -2 18 -9 22 -35 22 -18 -1 -32 1 -31 5 0 3 0 31 -1 62 -1 41 -5 58 -16 63
-9 3 -18 0 -21 -7z"/>
<path d="M860 1223 c0 -7 -6 -10 -14 -7 -22 9 -30 -16 -31 -94 l-1 -73 51 2
c65 3 96 32 92 87 -2 44 -25 72 -58 75 -13 0 -27 6 -31 12 -5 6 -8 6 -8 -2z
m41 -53 c6 0 7 -4 4 -10 -3 -5 -2 -10 2 -10 5 0 9 -9 9 -19 0 -11 -4 -17 -8
-15 -4 3 -8 -1 -8 -10 0 -8 -8 -13 -17 -12 -14 2 -18 13 -20 45 -1 34 2 41 14
37 8 -3 19 -6 24 -6z"/>
<path d="M1390 1206 c0 -18 6 -25 22 -28 20 -3 22 -8 21 -66 -1 -59 0 -63 21
-60 18 3 21 10 22 53 1 28 2 56 3 63 1 8 19 12 53 12 28 0 49 -3 46 -6 -4 -3
-2 -19 2 -35 5 -16 5 -29 1 -29 -3 0 -7 -9 -7 -20 0 -11 4 -20 9 -20 4 0 5 -5
1 -11 -4 -7 2 -9 17 -7 22 3 24 7 24 66 0 57 2 62 22 62 25 0 39 15 23 25 -6
4 -7 12 -3 18 4 7 0 6 -10 -2 -13 -10 -20 -11 -30 -2 -8 6 -16 8 -19 6 -12
-12 -53 -14 -67 -2 -9 7 -12 8 -8 1 8 -13 -50 -14 -70 -1 -6 4 -14 3 -17 -2
-7 -10 -25 -9 -43 2 -9 6 -13 1 -13 -17z"/>
<path d="M1705 1220 c3 -6 2 -10 -2 -10 -5 0 -9 -36 -10 -80 -1 -77 0 -80 22
-80 26 0 39 22 23 38 -8 8 -8 16 2 27 8 10 9 15 1 15 -13 0 -10 22 4 32 6 5 5
8 -2 8 -7 0 -13 5 -13 11 0 5 5 7 11 4 6 -4 5 2 -3 14 -7 11 -19 23 -26 26 -7
2 -10 0 -7 -5z"/>
<path d="M2010 1221 c0 -6 -9 -11 -20 -11 -43 0 -58 -102 -21 -139 26 -26 105
-30 115 -5 12 30 6 82 -9 88 -8 3 -15 1 -15 -4 0 -5 -9 -7 -20 -5 -23 4 -27
-13 -5 -21 20 -8 19 -34 -1 -34 -20 0 -43 24 -40 41 8 39 19 49 55 49 25 0 38
5 38 14 0 18 -34 39 -42 25 -5 -7 -11 -6 -21 2 -10 8 -14 8 -14 0z"/>
<path d="M2673 1206 c-13 -12 -23 -27 -23 -34 0 -8 -5 -10 -12 -6 -7 5 -8 3
-3 -6 7 -12 11 -29 14 -72 0 -10 8 -18 16 -18 8 0 15 -4 15 -10 0 -11 80 -13
95 -2 6 4 10 25 11 48 0 39 -1 41 -33 41 -34 0 -47 -22 -19 -33 8 -3 13 -11
10 -18 -7 -17 -34 -16 -34 1 0 8 -4 11 -10 8 -16 -10 -12 51 5 65 8 7 28 10
45 8 24 -4 30 -1 30 14 0 10 -7 18 -16 18 -8 0 -12 4 -9 10 4 6 -2 7 -18 1
-14 -5 -28 -6 -33 -1 -5 4 -19 -2 -31 -14z"/>
<path d="M2918 1215 c-4 -11 -6 -40 -7 -64 -1 -51 -1 -50 -30 -56 -13 -2 -21
1 -21 10 0 7 -3 21 -7 31 -5 13 -3 15 7 9 10 -6 11 -4 4 6 -4 8 -8 25 -9 39 0
19 -6 25 -22 26 -20 1 -21 -3 -19 -67 2 -77 17 -98 71 -98 49 0 69 22 69 76 1
27 6 51 11 55 6 5 5 8 -3 8 -7 0 -10 5 -7 10 3 6 0 10 -9 10 -8 0 -16 6 -19
13 -2 7 -6 4 -9 -8z"/>
<path d="M3004 1222 c4 -7 1 -12 -6 -12 -10 0 -13 -20 -13 -77 l1 -78 53 -3
c60 -3 82 8 61 33 -7 9 -17 12 -24 7 -18 -14 -39 -8 -42 11 -2 13 2 16 17 12
11 -4 19 -2 19 4 0 6 4 10 9 9 9 -3 11 2 11 20 0 5 -13 7 -30 4 -23 -3 -30 0
-30 12 0 15 28 22 68 17 6 -1 12 5 12 14 0 8 -4 15 -10 15 -20 0 -25 2 -39 13
-12 9 -13 9 -7 -1 8 -14 -19 -12 -43 2 -10 6 -12 5 -7 -2z"/>
<path d="M114 1193 c0 -16 4 -30 8 -33 4 -3 9 -21 11 -40 7 -53 17 -70 43 -70
17 0 24 6 24 19 0 11 4 22 9 26 6 3 8 14 6 25 -2 11 0 22 6 25 5 4 9 -1 9 -10
0 -9 4 -14 9 -10 6 3 8 -8 6 -25 -3 -18 0 -28 5 -25 6 4 10 -1 10 -9 0 -10 9
-16 25 -16 14 0 25 5 25 10 0 17 0 19 15 61 8 23 12 45 9 50 -3 5 -1 9 3 9 5
0 9 9 9 20 0 27 -40 20 -44 -8 -2 -12 -7 -22 -11 -22 -5 0 -6 -12 -3 -26 7
-39 -14 -22 -23 18 -4 18 -8 38 -9 43 -1 6 -12 10 -26 10 -21 0 -28 -8 -41
-50 -10 -27 -18 -43 -19 -35 -2 15 -5 32 -11 60 -9 38 -47 40 -45 3z"/>
<path d="M1079 1211 c-5 -37 -4 -53 3 -57 4 -3 5 -13 0 -22 -4 -9 -7 -30 -7
-47 0 -23 5 -31 21 -33 12 -2 24 4 27 12 4 9 1 16 -5 16 -16 0 8 24 25 26 7 0
20 2 29 2 15 2 31 33 33 67 1 22 -28 37 -75 39 -28 2 -50 0 -51 -3z m81 -53
c0 -11 -7 -18 -20 -18 -13 0 -20 7 -20 19 0 14 6 19 20 18 12 -1 20 -8 20 -19z"/>
<path d="M1225 1186 c2 -17 -1 -38 -6 -47 -5 -10 -4 -20 3 -27 7 -7 8 -12 3
-12 -5 0 2 -11 15 -25 24 -26 90 -36 90 -14 0 5 4 8 9 5 11 -7 28 14 26 34 0
8 4 18 10 22 6 5 6 8 -2 8 -8 0 -9 9 -3 30 6 22 5 34 -6 45 -20 19 -34 19 -34
0 0 -8 -5 -15 -11 -15 -8 0 -8 -4 -2 -12 5 -7 8 -23 7 -35 -1 -13 -2 -29 -3
-37 0 -8 -9 -13 -18 -11 -10 2 -21 4 -25 4 -5 1 -7 26 -5 56 1 31 -2 55 -8 56
-5 0 -17 2 -26 4 -13 2 -16 -4 -14 -29z"/>
<path d="M1764 1188 c-1 -15 2 -25 7 -23 8 6 7 -8 -5 -44 -6 -16 -4 -26 5 -32
10 -6 10 -9 2 -9 -7 0 -10 -7 -7 -15 4 -8 16 -15 29 -15 20 0 22 4 20 45 -1
25 -1 45 1 45 1 0 15 -20 31 -45 20 -32 35 -45 51 -45 12 0 22 6 23 13 5 64 2
140 -6 146 -24 17 -40 6 -37 -26 5 -52 -8 -57 -32 -11 -18 34 -27 42 -51 43
-26 1 -30 -2 -31 -27z"/>
<path d="M2217 1212 c-2 -4 -3 -20 -2 -37 1 -16 -3 -38 -8 -49 -6 -13 -6 -16
2 -12 13 8 10 -21 -3 -43 -6 -10 -5 -12 2 -7 7 4 12 2 12 -3 0 -7 23 -11 55
-11 51 0 55 2 53 23 -2 18 -7 22 -30 21 -29 -2 -57 19 -39 30 6 4 6 18 1 35
-5 19 -4 33 3 40 6 6 7 11 2 12 -6 0 -18 2 -27 4 -10 2 -19 0 -21 -3z"/>
<path d="M2350 1134 l0 -84 54 0 c61 0 81 20 40 39 -15 7 -23 7 -19 1 8 -13
-5 -13 -25 0 -13 9 -13 11 0 20 8 5 24 10 36 10 12 0 21 7 21 15 0 14 -22 20
-54 16 -7 -1 -13 5 -13 14 0 11 10 15 36 15 28 0 35 4 32 17 -2 12 -16 17 -55
18 l-53 2 0 -83z"/>
<path d="M2519 1200 c-1 -32 -10 -64 -20 -76 -6 -7 -13 -27 -15 -43 -4 -25 -2
-31 13 -31 10 0 26 9 35 19 18 22 58 18 58 -5 0 -8 10 -14 21 -14 19 0 21 4
14 38 -3 20 -10 41 -15 46 -5 5 -6 15 -3 22 3 8 0 14 -7 14 -7 0 -10 7 -7 15
7 18 -10 29 -45 30 -19 1 -28 -4 -29 -15z m51 -66 c0 -8 -4 -14 -10 -14 -5 0
-10 9 -10 21 0 11 5 17 10 14 6 -3 10 -13 10 -21z"/>
</g>
</svg>
