<svg width="35" height="35" viewBox="0 0 35 35" fill="none" xmlns="http://www.w3.org/2000/svg">
<path d="M30.7081 10.4719C30.7216 10.7799 30.7216 11.0739 30.7216 11.3819C30.7351 20.72 23.8744 31.5 11.328 31.5C7.62758 31.5 3.99466 30.394 0.874939 28.322C1.41515 28.392 1.95536 28.42 2.49557 28.42C5.56127 28.42 8.54594 27.356 10.9634 25.382C8.04624 25.326 5.48024 23.352 4.58889 20.468C5.61529 20.678 6.6687 20.636 7.66809 20.342C4.49435 19.698 2.21196 16.8 2.19846 13.4259C2.19846 13.3979 2.19846 13.3699 2.19846 13.3419C3.14383 13.8879 4.21074 14.1959 5.29117 14.2239C2.3065 12.1519 1.37463 8.02193 3.18434 4.78791C6.6552 9.21193 11.7602 11.8859 17.2433 12.1799C16.6896 9.72993 17.4459 7.15392 19.2151 5.41792C21.9567 2.74391 26.2784 2.88391 28.8714 5.72592C30.3975 5.41792 31.8696 4.82991 33.2066 4.00391C32.6934 5.64192 31.6265 7.02792 30.2084 7.90992C31.5589 7.74192 32.8825 7.36392 34.1249 6.80392C33.2066 8.23193 32.0451 9.46393 30.7081 10.4719Z" fill="white"/>
</svg>
