<svg width="35" height="35" viewBox="0 0 35 35" fill="none" xmlns="http://www.w3.org/2000/svg">
<path d="M34.902 10.2842C34.818 8.42074 34.5169 7.14572 34.0898 6.03183C33.6417 4.88291 33.0466 3.90212 32.0734 2.93535C31.1002 1.96857 30.127 1.35909 28.9788 0.917734C27.8656 0.483387 26.5913 0.189151 24.7289 0.105084C22.8596 0.0210168 22.2644 0 17.5175 0C12.7635 0 12.1684 0.0210168 10.3061 0.105084C8.44368 0.189151 7.16943 0.490392 6.0562 0.917734C4.90097 1.36609 3.92078 1.96157 2.95458 2.93535C1.98839 3.90913 1.37927 4.88291 0.938179 6.03183C0.511094 7.14572 0.210034 8.42074 0.126017 10.2842C0.0420003 12.1547 0.0209961 12.7502 0.0209961 17.5C0.0209961 22.2568 0.0420003 22.8523 0.126017 24.7158C0.210034 26.5793 0.511094 27.8543 0.938179 28.9682C1.38627 30.1171 1.98139 31.0979 2.95458 32.0647C3.92078 33.0384 4.90097 33.6409 6.0492 34.0823C7.16242 34.5166 8.43668 34.8109 10.2991 34.8949C12.1684 34.979 12.7635 35 17.5105 35C22.2644 35 22.8596 34.979 24.7219 34.8949C26.5843 34.8109 27.8586 34.5096 28.9718 34.0823C30.12 33.6339 31.1002 33.0384 32.0664 32.0647C33.0326 31.0909 33.6417 30.1171 34.0828 28.9682C34.5169 27.8543 34.811 26.5793 34.895 24.7158C34.979 22.8453 35 22.2498 35 17.5C35 12.7502 34.986 12.1477 34.902 10.2842ZM31.7583 24.5757C31.6813 26.285 31.3943 27.2168 31.1562 27.8263C30.8412 28.6389 30.4561 29.2274 29.84 29.8439C29.2238 30.4604 28.6427 30.8317 27.8236 31.1609C27.2074 31.3991 26.2762 31.6864 24.5749 31.7634C22.7335 31.8475 22.1804 31.8685 17.5035 31.8685C12.8266 31.8685 12.2734 31.8475 10.4321 31.7634C8.72374 31.6864 7.79255 31.3991 7.18343 31.1609C6.37127 30.8457 5.78315 30.4604 5.16703 29.8439C4.5509 29.2274 4.17983 28.6459 3.85076 27.8263C3.61271 27.2098 3.32566 26.278 3.24864 24.5757C3.16462 22.7332 3.14362 22.1797 3.14362 17.5C3.14362 12.8203 3.16462 12.2668 3.24864 10.4243C3.32566 8.71497 3.61271 7.78323 3.85076 7.17374C4.16582 6.36109 4.5509 5.77262 5.16703 5.15613C5.78315 4.53963 6.36426 4.16833 7.18343 3.83907C7.79955 3.60088 8.73074 3.31365 10.4321 3.23659C12.2734 3.15252 12.8266 3.13151 17.5035 3.13151C22.1804 3.13151 22.7335 3.15252 24.5749 3.23659C26.2832 3.31365 27.2144 3.60088 27.8236 3.83907C28.6357 4.15432 29.2238 4.53963 29.84 5.15613C30.4561 5.77262 30.8272 6.35408 31.1562 7.17374C31.3943 7.79023 31.6813 8.72198 31.7583 10.4243C31.8424 12.2668 31.8634 12.8203 31.8634 17.5C31.8634 22.1797 31.8354 22.7332 31.7583 24.5757Z" fill="white"/>
<path d="M17.5036 8.50488C12.5326 8.50488 8.51379 12.5331 8.51379 17.5001C8.51379 22.4741 12.5396 26.4953 17.5036 26.4953C22.4676 26.4953 26.4934 22.46 26.4934 17.5001C26.4934 12.5261 22.4746 8.50488 17.5036 8.50488ZM17.5036 23.3357C14.2829 23.3357 11.6714 20.7227 11.6714 17.5001C11.6714 14.2775 14.2829 11.6644 17.5036 11.6644C20.7242 11.6644 23.3358 14.2775 23.3358 17.5001C23.3358 20.7227 20.7242 23.3357 17.5036 23.3357Z" fill="white"/>
<path d="M26.8434 10.2562C28.0034 10.2562 28.9438 9.31526 28.9438 8.15454C28.9438 6.99381 28.0034 6.05286 26.8434 6.05286C25.6834 6.05286 24.743 6.99381 24.743 8.15454C24.743 9.31526 25.6834 10.2562 26.8434 10.2562Z" fill="white"/>
<path d="M0 17.5C0 22.2568 0.0210042 22.8523 0.105021 24.7158C0.189038 26.5793 0.490098 27.8543 0.917183 28.9682C1.36527 30.1171 1.96039 31.0979 2.93359 32.0647C3.89978 33.0314 4.87998 33.6409 6.02821 34.0823C7.14143 34.5166 8.41568 34.8109 10.2781 34.8949C12.1474 34.979 12.7425 35 17.4895 35C22.2434 35 22.8386 34.979 24.7009 34.8949C26.5633 34.8109 27.8376 34.5096 28.9508 34.0823C30.099 33.6339 31.0792 33.0384 32.0454 32.0647C33.0116 31.0979 33.6207 30.1171 34.0618 28.9682C34.4959 27.8543 34.79 26.5793 34.874 24.7158C34.958 22.8453 34.979 22.2498 34.979 17.5C34.979 12.7432 34.958 12.1477 34.874 10.2842C34.79 8.42074 34.4889 7.14572 34.0618 6.03183C33.6137 4.88291 33.0186 3.90212 32.0454 2.93535C31.0862 1.96157 30.106 1.35909 28.9578 0.917734C27.8446 0.483387 26.5703 0.189151 24.7079 0.105084C22.8386 0.0210168 22.2434 0 17.4965 0C12.7425 0 12.1474 0.0210168 10.2851 0.105084C8.42268 0.189151 7.14843 0.490392 6.03521 0.917734C4.88698 1.36609 3.90678 1.96157 2.94059 2.93535C1.97439 3.90913 1.36527 4.88291 0.924185 6.03183C0.490098 7.14572 0.189038 8.42074 0.105021 10.2842C0.0210042 12.1477 0 12.7432 0 17.5ZM3.15763 17.5C3.15763 12.8273 3.17864 12.2668 3.26265 10.4243C3.33967 8.71497 3.62673 7.78323 3.86477 7.17374C4.17984 6.36109 4.56491 5.77262 5.18104 5.15613C5.79716 4.53963 6.37828 4.16833 7.19744 3.83907C7.81356 3.60088 8.74475 3.31365 10.4461 3.23659C12.2875 3.15252 12.8406 3.13151 17.5175 3.13151C22.1944 3.13151 22.7475 3.15252 24.5889 3.23659C26.2973 3.31365 27.2284 3.60088 27.8376 3.83907C28.6497 4.15432 29.2378 4.53963 29.854 5.15613C30.4701 5.77262 30.8412 6.35408 31.1702 7.17374C31.4083 7.79023 31.6953 8.72198 31.7724 10.4243C31.8564 12.2668 31.8774 12.8203 31.8774 17.5C31.8774 22.1797 31.8564 22.7332 31.7724 24.5757C31.6953 26.285 31.4083 27.2168 31.1702 27.8263C30.8552 28.6389 30.4701 29.2274 29.854 29.8439C29.2378 30.4604 28.6567 30.8317 27.8376 31.1609C27.2214 31.3991 26.2903 31.6864 24.5889 31.7634C22.7475 31.8475 22.1944 31.8685 17.5175 31.8685C12.8406 31.8685 12.2875 31.8475 10.4461 31.7634C8.73775 31.6864 7.80656 31.3991 7.19744 31.1609C6.38528 30.8457 5.79716 30.4604 5.18104 29.8439C4.56491 29.2274 4.19384 28.6459 3.86477 27.8263C3.62673 27.2098 3.33967 26.278 3.26265 24.5757C3.17163 22.7332 3.15763 22.1727 3.15763 17.5Z" fill="white"/>
</svg>
